# xmcd
#
# Track frame offsets:
#	150
#	18100
#	33835
#	55255
#	76390
#	93017
#	113565
#	126287
#	144342
#	159329
#	174147
#
# Disc length: 2505 seconds
#
# Revision: 0
# Processed by: cddbd v1.5.1PL0 Copyright (c) Steve Scherf et al.
# Submitted via: audiograbber 1.82.02
#
DISCID=7209c70b
DTITLE=Zé Marco and Adriano - Verdadeiro Amor
DYEAR=2000
DGENRE=Gospel
TTITLE0=Verdadeiro Amor
TTITLE1=Minha Vida
TTITLE2=Coração Carente II
TTITLE3=Amor Sem Fim
TTITLE4=Abrigado Senhor
TTITLE5=Como Um Que Se Apagou
TTITLE6=Lágima de Prazer
TTITLE7=Tente Acreditar
TTITLE8=Pela Fé
TTITLE9=Autor da Vida
TTITLE10=Tchau Solidão
EXTD=
EXTT0=
EXTT1=
EXTT2=
EXTT3=
EXTT4=
EXTT5=
EXTT6=
EXTT7=
EXTT8=
EXTT9=
EXTT10=
PLAYORDER=
